<svg xmlns="http://www.w3.org/2000/svg" xmlns:xlink="http://www.w3.org/1999/xlink" width="1920" height="972.001" viewBox="0 0 1920 972.001">
  <defs>
    <linearGradient id="linear-gradient" x1="1" y1="0.024" x2="-0.009" y2="1.017" gradientUnits="objectBoundingBox">
      <stop offset="0" stop-color="#050505"/>
      <stop offset="1"/>
    </linearGradient>
  </defs>
  <g id="Exclusion_2" data-name="Exclusion 2" transform="translate(0)" opacity="0.31" fill="url(#linear-gradient)">
    <path d="M 1919.500122070313 971.5 L 0.5003601908683777 971.5 L 0.5003601908683777 0.5000120997428894 L 1919.500122070313 0.5000120997428894 L 1919.500122070313 971.5 Z M 1487.000122070313 150.500244140625 C 1305.3134765625 150.500244140625 1157.500366210938 286.4254760742188 1157.500366210938 453.500244140625 C 1157.500366210938 620.5747680664063 1305.3134765625 756.5 1487.000122070313 756.5 C 1668.687255859375 756.5 1816.500610351563 620.5747680664063 1816.500610351563 453.500244140625 C 1816.500610351563 286.4254760742188 1668.687255859375 150.500244140625 1487.000122070313 150.500244140625 Z" stroke="none"/>
    <path d="M 1919.000122070313 971 L 1919.000122070313 1.000012040138245 L 1.000360131263733 1.000012040138245 L 1.000360131263733 971 L 1919.000122070313 971 M 1487.000122070313 150.000244140625 C 1668.963012695313 150.000244140625 1817.000610351563 286.1497802734375 1817.000610351563 453.500244140625 C 1817.000610351563 620.8504638671875 1668.963012695313 757 1487.000122070313 757 C 1305.037719726563 757 1157.000366210938 620.8504638671875 1157.000366210938 453.500244140625 C 1157.000366210938 286.1497802734375 1305.037719726563 150.000244140625 1487.000122070313 150.000244140625 M 1920.000122070313 972.0009765625 L 1920.000122070313 972 L 0.0003601655480451882 972 L 0.0003601655480451882 1.209077345265541e-05 L 1920.000122070313 1.209077345265541e-05 L 1920.000122070313 972 L 1920.000122070313 972.0009765625 Z M 1487.000122070313 151.000244140625 C 1305.588989257813 151.000244140625 1158.000366210938 286.7012023925781 1158.000366210938 453.500244140625 C 1158.000366210938 620.299072265625 1305.588989257813 756 1487.000122070313 756 C 1668.411254882813 756 1816.000610351563 620.299072265625 1816.000610351563 453.500244140625 C 1816.000610351563 286.7012023925781 1668.411254882813 151.000244140625 1487.000122070313 151.000244140625 Z" stroke="none" fill="#707070"/>
  </g>
</svg>
