<?xml version="1.0" encoding="utf-8"?>
<!-- Generator: Adobe Illustrator 24.2.3, SVG Export Plug-In . SVG Version: 6.00 Build 0)  -->
<svg version="1.1" xmlns="http://www.w3.org/2000/svg" xmlns:xlink="http://www.w3.org/1999/xlink" x="0px" y="0px"
	 viewBox="0 0 500 500" style="enable-background:new 0 0 500 500;" xml:space="preserve">
<style type="text/css">
	.st0{fill:#F5F5F5;}
	.st1{fill:#E0E0E0;}
	.st2{fill:#7DEE3C;}
	.st3{opacity:0.15;enable-background:new    ;}
	.st4{fill:#455A64;}
	.st5{fill:#E42626;}
	.st6{opacity:0.2;enable-background:new    ;}
	.st7{fill:#37474F;}
	.st8{fill:#FFFFFF;}
	.st9{fill:#263238;}
	.st10{fill:#5DADE2;}
	.st11{opacity:0.4;fill:#5DADE2;}
	.st12{fill:#BA68C8;}
	.st13{fill:#FFA8A7;}
	.st14{fill:#F39C12;}
	.st15{opacity:0.4;}
	.st16{fill:#F28F8F;}
	.st17{fill:#58D68D;}
	.st18{opacity:0.4;fill:#FFFFFF;}
	
	@keyframes mymove {
     from {display:none}
     to {display:block}
}
</style>
<g id="Floor">
</g>
<g id="Shadows">
</g>
<g id="Clouds">
</g>
<g id="Tree">
</g>
<g id="Locator">
</g>
<g id="Device">
</g>
<g id="Character">
	<g>
		<ellipse class="st0" cx="248.33" cy="352.66" rx="248.31" ry="147.34"/>
		<path id="freepik--shadow--inject-54_1_" class="st1" d="M301.85,315.21l-149.02,86.08c-1.82,0.92-3.97,0.92-5.78,0l-17.72-9.74
			c-1.6-0.92-1.6-2.42,0-3.33l149.06-86.09c1.82-0.92,3.97-0.92,5.78,0l17.68,9.74C303.45,312.85,303.45,314.29,301.85,315.21z"/>
		<ellipse class="st1" cx="345.29" cy="420.13" rx="58.78" ry="31.94"/>
		<ellipse class="st1" cx="424.66" cy="323.82" rx="24.95" ry="13.56"/>
		<ellipse class="st1" cx="66.89" cy="331.1" rx="39.69" ry="21.57"/>
		<g>
			<path class="st2" d="M54.96,194.13c2.05-0.21,4.12,0.17,5.97,1.07c3.58,1.73,6.55,4.49,9.73,6.84c3.18,2.35,6.84,4.56,10.79,4.67
				s8.27-2.35,8.99-6.26c0.05-0.69,0.22-1.37,0.51-2c0.81-1.03,2.21-1.39,3.42-0.88c1.15,0.52,2.25,1.16,3.27,1.89
				c4.03,2.37,9.12,1.84,13.69,1.14c3.84-0.56,8.7-2.28,8.69-6.15c0-2.53-2.28-4.41-3.97-6.25c-1.69-1.84-3.17-4.79-1.57-6.76
				c0.61-0.67,1.4-1.14,2.28-1.37c4.81-1.56,10.71,0.52,14.83-2.49c3.01-2.28,3.72-6.84,2.13-10.19c-1.77-3.37-4.95-5.79-8.67-6.6
				c-3.23-0.82-7.33-1.2-8.54-4.31c-1.05-2.73,1.07-5.7,3.42-7.35c2.35-1.64,5.28-2.85,6.95-5.25c1.67-2.61,1.76-5.93,0.23-8.62
				c-1.58-2.63-4.22-4.45-7.24-4.97c-1.5-0.11-2.99-0.44-4.4-0.96c-1.35-0.68-2.36-2.38-1.63-3.71c0.43-0.8,1.36-1.21,1.88-1.95
				c1.02-1.43,0.14-3.55-1.3-4.56c-1.54-0.87-3.19-1.5-4.92-1.88c-3.49-1.14-6.84-4.56-5.84-8.08c1-3.51,6.09-4.86,7.57-8.39
				c1.32-3.11-0.76-6.76-3.57-8.67c-2.81-1.9-6.3-2.62-9.35-4.07c-3.06-1.45-6.02-4-6.27-7.39c-0.25-3.39,2.34-6.38,4.46-9.12
				c2.12-2.75,3.91-6.6,2.06-9.54c-1.85-2.93-5.7-2.99-8.91-4c-3.92-1.27-7.11-4.14-8.77-7.9c-0.84-1.96-1.25-4.09-2.28-5.97
				c-3.1-5.83-11.09-8.37-17.22-7.66c-3.22,0.43-4.29,1.57-5.85,3.97c-0.9,1.4-1.82,2.11-2.14,4.04c-0.47,2.82,1.03,6.39-1.63,8.54
				c-4.04,3.26-10.27-1.14-9.99,6.17c0,3.09,0.45,6.17,1.36,9.12c1.14,3.07,3.3,4.39,1.47,7.84c-2.37,4.45-3.92,4.43-8.67,4.41
				c-3.42,0-6.31-0.19-8.83,2.42c-4.44,4.56-1.8,8.73,2.13,12.26c4.48,4.01,2.11,5.78,1.53,10.98c-0.29,2.51,0.29,3.27-1.95,4.94
				c-4.24,3.15-6.6,2.09-5.42,8.25c1.14,5.62-0.59,3.7-5.46,5.79c-4.32,1.86-7.17,6.51-10.68,9.41c-2.28,1.87-5.7,3.31-5.89,6.58
				c-0.41,6.27,7.39,4.9,11.1,6.4c6.06,2.45,4.25,10.39-0.48,13.37c-5.01,3.14-12.31,4.31-12.71,11.49
				c-0.31,5.51,2.82,6.73,7.09,8.57c3.42,1.47,2.98,1.9,2.97,5.98c0,8.21,2.76,10.54,10.86,9.19c2.21-0.36,5.6-1.3,7.81-0.64
				c3.09,0.94,2.05,1.7,2.13,4.29c0.23,6.63,7.98,4.76,11.21,1.92C45.1,198.43,49.84,194.63,54.96,194.13z"/>
			<path class="st3" d="M116.68,180.14c3.7-1.2,7.98-0.26,11.68-1.14c-2.15-0.51-4.34-0.85-6.55-1.03
				c-5.29-0.23-10.42,1.81-14.11,5.6c1.94,2.39,2.95,5.39,2.84,8.46c-9.12,2.49-18.25-9.81-26.94-6.07c0.54,4.44,0,10.4-4.3,11.41
				c-2.54,0.57-5.1-1.14-6.67-3.21s-2.54-4.56-4.13-6.64c-4.6-5.56-12.66-6.74-18.65-2.71c-2.37,1.72-5.34,4.32-7.7,2.6
				c-2.54-1.84-0.99-6.84-3.8-8.22c-1.87-0.94-4.48,0.54-6.05-0.83c-0.58-0.63-0.95-1.43-1.07-2.28
				c-1.14-4.69-2.08-10.11,0.88-13.92c2.62-3.42,8.18-5.47,7.58-9.72c-0.51-3.63-5.12-4.73-8.77-5.16s-8.25-2.13-8.06-5.79
				s5.05-5.33,5.77-8.85c0.3-1.51-0.21-3.18,0.48-4.56c1.04-2.06,4-2.14,5.7-3.67c3.11-2.76,0.7-7.92,1.57-11.98
				c0.63-2.87,2.95-5.13,3.72-7.98c1.55-5.7-3.62-11.06-9.01-13.38c-2.13-0.75-4.18-1.71-6.11-2.87l-0.19-0.15
				c0.13,2.57,2.03,4.95,4.43,7.09c4.48,4.01,2.11,5.78,1.53,10.98c-0.29,2.51,0.29,3.27-1.95,4.94c-4.24,3.15-6.6,2.09-5.42,8.25
				c1.14,5.62-0.59,3.7-5.46,5.79c-4.32,1.86-7.17,6.51-10.68,9.41c-2.28,1.87-5.7,3.31-5.89,6.58c-0.41,6.27,7.39,4.9,11.1,6.4
				c6.06,2.45,4.25,10.39-0.48,13.37C6.96,164-0.34,165.18-0.74,172.35c-0.31,5.51,2.82,6.73,7.09,8.57
				c3.42,1.47,2.98,1.9,2.97,5.98c0,8.21,2.76,10.54,10.86,9.19c2.21-0.36,5.6-1.3,7.81-0.64c3.09,0.94,2.05,1.7,2.13,4.29
				c0.23,6.63,7.98,4.76,11.21,1.92c3.76-3.26,8.5-7.06,13.61-7.56c2.05-0.21,4.12,0.17,5.97,1.07c3.58,1.73,6.55,4.49,9.73,6.84
				c3.18,2.35,6.84,4.56,10.79,4.67c3.95,0.1,8.27-2.35,8.99-6.26c0.05-0.69,0.22-1.37,0.51-2c0.81-1.03,2.21-1.39,3.42-0.88
				c1.15,0.52,2.25,1.16,3.27,1.89c4.03,2.37,9.12,1.84,13.69,1.14c3.84-0.56,8.7-2.28,8.69-6.15c0-2.53-2.28-4.41-3.97-6.25
				c-1.69-1.84-3.17-4.79-1.57-6.76C115.07,180.79,115.84,180.35,116.68,180.14z"/>
			<path class="st4" d="M38.99,117.63l24.93,49.43v-22.74l2.54-59.12l3.68,59.12v15.3l27.37-47.9l-27.37,58.81v164.52
				c-0.05,0.56-0.4,1.04-0.91,1.27c-1.39,0.7-3.02,0.7-4.4,0c-0.51-0.23-0.86-0.71-0.91-1.27V179.67L38.99,117.63z"/>
		</g>
		<g class="location">
			<path class="st5" d="M430,126.1c-6.89-3.96-13.11-4.1-17.59-1.1l-8.73,5.01c-5.38,2.54-8.72,8.98-8.56,18.37v3.82
				c0.26,15.75,22.72,59.33,25.5,64.68c-0.31,0.33-0.5,0.54-0.5,0.54l0.6-0.35c0.12,0.23,0.18,0.35,0.18,0.35s0.54-0.46,1.45-1.29
				l7.65-4.41c0,0,24.71-20.37,24.71-37.1v-3.82C454.7,153.99,443.64,133.98,430,126.1z M419.72,146.07
				c7.37,4.64,12.09,12.51,12.7,21.2c0.02,0.96-0.05,1.85-0.2,2.68c-0.72-0.27-1.47-0.6-2.23-1.05c-7.27-4.77-11.84-12.71-12.3-21.4
				h-0.06c0-0.82,0.07-1.58,0.19-2.3C418.45,145.44,419.08,145.71,419.72,146.07z"/>
			<path class="st6" d="M395.11,152.2c0.28,16.79,25.79,65.22,25.79,65.22s24.38-20.71,24.11-37.5v-3.82
				c-0.28-16.79-11.67-36.63-25.46-44.27c-13.79-7.64-24.72-0.25-24.44,16.56V152.2z M407.49,153.42
				c-0.13-7.83,5.36-11.17,12.24-7.35c7.37,4.64,12.09,12.51,12.7,21.2c0.14,7.83-5.34,11.17-12.24,7.35
				C412.83,169.97,408.11,162.1,407.49,153.42z"/>
		</g>
		<g>
			<g>
				<g>
					<path class="st4" d="M278.61,29.95L159.88,99.06c-3.54,2.06-5.71,5.84-5.71,9.93v278.74c0,3.26,3.53,5.29,6.35,3.65
						l117.34-68.3c3.62-2.11,5.85-5.99,5.85-10.18V32.88C283.7,30.26,280.87,28.64,278.61,29.95z"/>
					<path class="st7" d="M283.7,32.87v0.37c0-0.22-0.01-0.43-0.02-0.65C283.7,32.69,283.7,32.78,283.7,32.87z"/>
					<path class="st8" d="M275.06,69.65l-111.56,64.87c-2.63,1.53-4.24,4.34-4.24,7.38v207.75c0,1.59,1.73,2.59,3.1,1.79
						l112.54-65.44c2.03-1.18,3.29-3.36,3.29-5.71V71.45C278.19,69.84,276.45,68.84,275.06,69.65z"/>
					<path class="st7" d="M160.51,391.39c-0.19,0.11-0.38,0.2-0.57,0.28C160.13,391.57,160.32,391.5,160.51,391.39z"/>
					<path class="st9" d="M283.63,32.15c-0.48-2.18-2.98-3.39-5.02-2.2L159.88,99.06c-1.62,0.95-2.97,2.26-3.93,3.8
						c-1.15,1.8-1.79,3.92-1.79,6.13v278.74c0,3.04,3.09,5.01,5.78,3.93c-6.58,3.25-15.1-2.12-15.1-2.12
						c-7.88-4.35-7.3-12.25-7.3-12.25V98.55c0-2.02,0.53-3.97,1.5-5.66c0.99-1.74,2.42-3.22,4.21-4.27l118.74-69.11
						c0,0,4.85-3.06,13.31,2.29C275.29,21.79,282.83,25.82,283.63,32.15z"/>
					<path class="st7" d="M283.63,32.15c-0.48-2.18-2.98-3.39-5.02-2.2L159.88,99.06c-1.62,0.95-2.97,2.26-3.93,3.8l-16.91-9.98
						c0.99-1.74,2.42-3.22,4.21-4.27l118.74-69.11c0,0,4.85-3.06,13.31,2.29C275.29,21.79,282.83,25.82,283.63,32.15z"/>
					<path class="st7" d="M203.3,98.82c0,2.46-2,5.61-4.46,7.03c-2.46,1.42-4.46,0.58-4.46-1.88c0-2.46,2-5.61,4.46-7.03
						C201.3,95.52,203.3,96.36,203.3,98.82z"/>
					<path class="st7" d="M226.73,334.89c0,4.43-3.59,10.1-8.02,12.66c-4.43,2.56-8.02,1.04-8.02-3.39c0-4.43,3.59-10.1,8.02-12.66
						C223.14,328.94,226.73,330.45,226.73,334.89z"/>
					<path class="st4" d="M141.65,146.37c0,2.13,1.73,4.86,3.86,6.09c2.13,1.23,3.86,0.5,3.86-1.63c0-2.13-1.73-4.86-3.86-6.09
						C143.37,143.51,141.65,144.24,141.65,146.37z"/>
					<path class="st4" d="M141.65,172.4c0,2.13,1.73,4.86,3.86,6.09c2.13,1.23,3.86,0.5,3.86-1.63c0-2.13-1.73-4.86-3.86-6.09
						C143.37,169.53,141.65,170.26,141.65,172.4z"/>
					<path class="st7" d="M220.77,75.94c0,1.14-0.93,2.6-2.07,3.26c-1.14,0.66-2.07,0.27-2.07-0.87c0-1.14,0.93-2.6,2.07-3.26
						C219.85,74.41,220.77,74.8,220.77,75.94z"/>
					<path class="st7" d="M211.96,97.12l27.81-16.19c1.5-0.87,2.42-2.48,2.42-4.21v0c0-1.66-1.8-2.69-3.23-1.86l-27.81,16.19
						c-1.5,0.87-2.42,2.48-2.42,4.21l0,0C208.73,96.92,210.53,97.95,211.96,97.12z"/>
				</g>
				<g>
					<path class="st1" d="M191.65,118.15v51.49c0,2.32-0.76,4.58-2.17,6.42l-30.21,39.45V141.9c0-3.05,1.61-5.86,4.24-7.39
						L191.65,118.15z"/>
					<path class="st1" d="M202.24,169.29L235.4,150c2.17-1.26,3.51-3.59,3.51-6.1V90.67l-39.86,23.18v53.6
						C199.05,169.09,200.82,170.11,202.24,169.29z"/>
					<path class="st1" d="M238.92,160.27v30.71c0,1.31-0.69,2.51-1.82,3.17l-21.14,12.29c-0.98,0.57-1.59,1.62-1.59,2.76v19.98
						c0,1.38-0.73,2.65-1.93,3.35l-11.64,6.76c-0.78,0.45-1.75-0.11-1.75-1.01v-54.67c0-1.73,0.92-3.33,2.42-4.2l35.18-20.46
						C237.65,158.38,238.92,159.11,238.92,160.27z"/>
					<path class="st1" d="M220.12,209.28l17.54-10.21c0.56-0.33,1.26,0.08,1.26,0.73v15.6c0,1.08-0.57,2.07-1.5,2.61l-17.13,9.96
						c-0.61,0.35-1.37-0.09-1.37-0.79v-15.82C218.92,210.51,219.38,209.72,220.12,209.28z"/>
					<path class="st1" d="M220.12,239.29l17.54-10.21c0.56-0.33,1.26,0.08,1.26,0.73v15.6c0,1.08-0.57,2.07-1.5,2.61l-17.13,9.96
						c-0.61,0.35-1.37-0.08-1.37-0.79v-15.82C218.92,240.51,219.38,239.72,220.12,239.29z"/>
					<path class="st1" d="M220.12,263.2l17.54-10.21c0.56-0.33,1.26,0.08,1.26,0.73v25.12c0,1.08-0.57,2.07-1.5,2.61l-17.13,9.96
						c-0.61,0.35-1.37-0.09-1.37-0.79v-25.33C218.92,264.43,219.38,263.63,220.12,263.2z"/>
					<path class="st1" d="M243.24,290.58v13.83L201.8,328.5v-14.09c0-1.64,0.89-3.15,2.32-3.95l37.42-20.88
						C242.3,289.15,243.24,289.71,243.24,290.58z"/>
					<path class="st1" d="M191.65,189.24v65.34c0,1.93-1.03,3.71-2.7,4.68l-29.68,17.26v-47.7l30.74-40.14
						C190.53,187.99,191.65,188.36,191.65,189.24z"/>
					<path class="st1" d="M278.2,71.45v30.77l-28.78,16.41c-1.1,0.63-2.46-0.17-2.46-1.43V85.99l28.11-16.34
						C276.46,68.84,278.2,69.85,278.2,71.45z"/>
					<path class="st1" d="M278.2,121.41v72.87l-29.43,17.1c-0.8,0.47-1.81-0.11-1.81-1.04v-55.79c0-1.96,0.8-3.83,2.21-5.19
						L278.2,121.41z"/>
					<path class="st1" d="M278.19,106.55l-29.65,18.33c-0.98,0.61-1.58,1.68-1.58,2.84v11.73c0,0.88,1.05,1.33,1.69,0.72l29.55-28.1
						L278.19,106.55z"/>
					<path class="st1" d="M214.37,245.09v46.9c0,1.69-0.9,3.25-2.36,4.1l-36.13,20.99c-0.76,0.44-1.71-0.1-1.71-0.98v-36.23
						c0-1.08,0.58-2.1,1.51-2.64l21.85-12.74c0.94-0.54,1.51-1.55,1.51-2.64v-8.76c0-1.13,0.6-2.15,1.57-2.72l11.41-6.63
						C213.07,243.14,214.37,243.89,214.37,245.09z"/>
					<path class="st1" d="M193.91,319.26v13.84l-31.55,18.34c-1.37,0.8-3.1-0.2-3.1-1.8v-62.83l3.98-2.32
						c0.76-0.43,1.7,0.11,1.7,0.98v43.95c0,1.3,1.4,2.13,2.54,1.5l23.72-13.24C192.42,316.99,193.91,317.87,193.91,319.26z"/>
					<path class="st1" d="M278.2,205.47v72.15l-26.53,15.53c-1.28,0.76-2.9-0.17-2.9-1.65v-66.03c0-1.77,0.94-3.39,2.47-4.29
						L278.2,205.47z"/>
				</g>
				<g>
					<path class="st10" d="M170.11,323.82h-1.14V277.5c0-1.25,0.66-2.42,1.73-3.07l23.64-14.26c0.7-0.42,1.14-1.2,1.14-2.01v-78.44
						c0-1.61,0.86-3.12,2.23-3.94l42.5-25.5c1.52-0.91,2.46-2.58,2.46-4.35v-23.3h1.14v23.3c0,2.17-1.16,4.21-3.01,5.32l-42.5,25.5
						c-1.03,0.62-1.68,1.76-1.68,2.97v78.44c0,1.22-0.65,2.36-1.69,2.99l-23.64,14.26c-0.73,0.44-1.18,1.24-1.18,2.09V323.82z"/>
					<path class="st11" d="M170.11,323.82h-1.14V277.5c0-1.25,0.66-2.42,1.73-3.07l23.64-14.26c0.7-0.42,1.14-1.2,1.14-2.01v-78.44
						c0-1.61,0.86-3.12,2.23-3.94l42.5-25.5c1.52-0.91,2.46-2.58,2.46-4.35v-23.3h1.14v23.3c0,2.17-1.16,4.21-3.01,5.32l-42.5,25.5
						c-1.03,0.62-1.68,1.76-1.68,2.97v78.44c0,1.22-0.65,2.36-1.69,2.99l-23.64,14.26c-0.73,0.44-1.18,1.24-1.18,2.09V323.82z"/>
					<path class="st10" d="M172.63,321.69c0,1.7-1.38,3.88-3.08,4.86c-1.7,0.98-3.08,0.4-3.08-1.3c0-1.7,1.38-3.88,3.08-4.86
						C171.24,319.4,172.63,319.99,172.63,321.69z"/>
					<path class="st10" d="M246.22,120.85c0,1.7-1.38,3.88-3.08,4.86c-1.7,0.98-3.08,0.4-3.08-1.3s1.38-3.88,3.08-4.86
						C244.84,118.57,246.22,119.15,246.22,120.85z"/>
				</g>
				<path class="st5" d="M252.99,102.99L252.99,102.99c1.33-2.1,2.23-4.32,2.47-6.39c0.64-5.55-3.64-7.98-9.57-5.42
					c-5.93,2.56-11.27,9.16-11.91,14.71c-0.24,2.07,0.21,3.71,1.18,4.81l-0.01,0l0.07,0.07c0.18,0.2,0.38,0.37,0.59,0.53l6.21,5.6
					c0.41,0.37,1.32-0.03,1.86-0.81l8.19-11.79C252.39,103.88,252.7,103.44,252.99,102.99L252.99,102.99z M245.32,96.17
					c2.99-1.3,5.15-0.07,4.82,2.73c-0.32,2.81-3.01,6.12-6,7.41c-2.99,1.3-5.15,0.07-4.82-2.73
					C239.64,100.78,242.32,97.46,245.32,96.17z"/>
			</g>
			<g>
				<path class="st12" d="M216.61,247.96l-11.43,6.56c-0.63,0.36-1.02,1.03-1.02,1.76v12.64c0,0.36,0.38,0.58,0.69,0.4l3.88-2.23
					l1.35,2.26c0.08,0.14,0.29,0.11,0.34-0.04l1.24-3.9l4.53-2.6c0.76-0.44,1.23-1.25,1.23-2.13v-12.25
					C217.42,248.02,216.97,247.76,216.61,247.96z"/>
				<g>
					<path class="st8" d="M207.76,261.21v1.33l-0.7,0.41v-1.32l-1.49-1.6l0.75-0.43l1.11,1.2l1.12-2.49l0.69-0.4L207.76,261.21z"/>
					<path class="st8" d="M209.82,261.21c-0.23,0.01-0.42-0.06-0.55-0.21c-0.13-0.15-0.2-0.37-0.2-0.65c0-0.29,0.07-0.58,0.2-0.87
						c0.13-0.3,0.31-0.58,0.55-0.84c0.23-0.26,0.5-0.48,0.79-0.64c0.29-0.17,0.56-0.26,0.79-0.27c0.23-0.01,0.42,0.06,0.55,0.21
						s0.2,0.36,0.2,0.65c0,0.28-0.07,0.58-0.2,0.88c-0.13,0.3-0.31,0.58-0.55,0.84c-0.23,0.26-0.5,0.48-0.79,0.65
						C210.32,261.11,210.06,261.2,209.82,261.21z M211.23,259.76c0.16-0.26,0.24-0.52,0.24-0.79c0-0.27-0.08-0.44-0.24-0.51
						c-0.16-0.07-0.37-0.04-0.62,0.11c-0.25,0.14-0.45,0.35-0.61,0.6c-0.16,0.26-0.24,0.52-0.24,0.79c0,0.27,0.08,0.44,0.24,0.52
						c0.16,0.07,0.36,0.04,0.61-0.11C210.86,260.22,211.06,260.02,211.23,259.76z"/>
					<path class="st8" d="M215.59,255.14v2.89l-0.64,0.37v-0.37c-0.11,0.19-0.24,0.37-0.41,0.53c-0.16,0.16-0.34,0.3-0.52,0.41
						c-0.38,0.22-0.69,0.29-0.91,0.2c-0.22-0.09-0.33-0.34-0.33-0.76v-1.65l0.68-0.39v1.56c0,0.26,0.06,0.42,0.18,0.48
						c0.12,0.06,0.28,0.03,0.5-0.1c0.24-0.14,0.43-0.33,0.57-0.56c0.14-0.23,0.21-0.49,0.21-0.77v-1.46L215.59,255.14z"/>
				</g>
			</g>
		</g>
		<g>
			<g>
				<path class="st9" d="M374.22,403.34c0,0,0.45,0.6,0.54,2c0.1,1.4,0.2,5.41,0,6.39c-0.2,0.98-2.32,2.41-4.94,2.12
					c-2.62-0.29-4.44-2.31-5.74-4.3c-1.3-1.99-7.01-8.83-8.05-10.49c-1.04-1.66-2.65-6.04-0.63-7.84c1.7-1.52,8.06,1.94,9.76,3.86
					C366.85,397,374.22,403.34,374.22,403.34z"/>
				<path class="st9" d="M347.14,423.45c0,0,0.81,1.12,1.27,3.19c0.41,1.84,1.07,6.24,0.72,7.56c-0.17,0.64-2.45,2.26-4.7,2.39
					c-1.34,0.08-2.94,0.13-4.24,0.17c-0.97,0.03-1.91,0.27-2.77,0.71c-1.56,0.8-4.34,2.16-7.17,3.24
					c-4.27,1.63-9.87,2.25-12.58,1.69c-2.7-0.55-5.86-2.23-7.13-3.94c-0.59-0.79-0.41-2.33,0.12-2.77c3.3-2.75,8.77-4.1,12.16-5.52
					c5.71-2.38,12.36-6.46,13.19-7.12C336.86,422.4,347.14,423.45,347.14,423.45z"/>
				<path class="st13" d="M347.14,417.19v6.26c0,0-1.63,2.38-5.63,2.57c-3.41,0.16-5.18-2.08-5.48-2.96c0,0,0.33-4.05,0.15-5.88
					H347.14z"/>
				<path class="st13" d="M374.22,399.56v3.78c0,0-0.56,1.98-4.34,2.1c-2.95,0.09-4.64-1.44-4.64-1.44l-0.79-5.55L374.22,399.56z"/>
				<path class="st14" d="M323.93,283.83c0,0,1.34,59.76,3.07,70.67c1.19,7.49,9.12,64.26,9.12,64.26c5.94,3.13,11.2-0.1,11.2-0.1
					s0.01-1.99,0.27-5.25c0.26-3.27,2.75-30.98,2.49-41.4c-0.26-10.44-3.5-17.66-3.5-17.66l3.51-51.53l1.63,0.21
					c0,0-0.08,5.5,0.6,15.26c0,0,1.3,19.67,1.76,23.54c0.87,7.21,5.69,33.46,7.12,40.42c1.27,6.23,3.35,17.75,3.35,17.75
					c3.05,3.04,9.69,0.64,9.69,0.64s0.33-7.83,0.68-12.6c0.36-4.78,1.8-26.23,1.22-31.87c-0.81-7.85-4.02-15.39-3.73-17.39
					c1.67-11.55,1.82-60.74,1.82-60.74L323.93,283.83z"/>
				<path class="st15" d="M323.93,283.83c0,0,1.34,59.76,3.07,70.67c1.19,7.49,9.12,64.26,9.12,64.26c5.94,3.13,11.2-0.1,11.2-0.1
					s0.01-1.99,0.27-5.25c0.26-3.27,2.75-30.98,2.49-41.4c-0.26-10.44-3.5-17.66-3.5-17.66l3.51-51.53l1.63,0.21
					c0,0-0.08,5.5,0.6,15.26c0,0,1.3,19.67,1.76,23.54c0.87,7.21,5.69,33.46,7.12,40.42c1.27,6.23,3.35,17.75,3.35,17.75
					c3.05,3.04,9.69,0.64,9.69,0.64s0.33-7.83,0.68-12.6c0.36-4.78,1.8-26.23,1.22-31.87c-0.81-7.85-4.02-15.39-3.73-17.39
					c1.67-11.55,1.82-60.74,1.82-60.74L323.93,283.83z"/>
				<path class="st15" d="M350.09,302.83l1.64,0.21c0,0-0.1,5.85,0.63,16.22c0,0,0.32,4.96,0.71,10.5l2.67-26.42
					c7.63-4.17,12.72-11.39,12.72-11.39c-10.84,8.31-18.37,10.87-18.37,10.87V302.83z"/>
			</g>
			<path class="st7" d="M377.16,212.9c-2.52-3.55-6.3-4.59-6.3-4.59l2,60.82c0,0,14.78-6.61,15.28-10.54
				C388.6,255.11,379.9,216.77,377.16,212.9z"/>
			<path class="st13" d="M327.5,179.91c-0.07-2.52-0.07-5.76,0-6.91c0.29-4.5,1.64-6.29,1.64-6.29c5.52-7.2,25.7-5.58,27.13-1.53
				c1.42,4,4.25,26.16-1.98,30.1c0.64,3.45,2.43,11.89,2.43,11.89c-5.04,4.58-15.57,3.11-15.57,3.11c0.31-1.54-1.1-7.71-1.87-10.85
				c-4.32,0.52-8.06,0.45-9.28-0.45c-0.01,0-0.01,0-0.02-0.01c-0.1-0.08-0.18-0.16-0.25-0.25c-0.94-1.33-1.6-6.4-1.96-12.5
				c-1.14,0.15-2.91,0.3-3.13-0.15C324.39,185.57,326.45,181.79,327.5,179.91z"/>
			<path class="st9" d="M339.05,180.32c0,0-0.57-3.96,3.37-4.33c3.94-0.37,6.44,4.69,4.48,8.4c-1.96,3.71-4.48,3.94-4.48,3.94
				s-0.49,4.28-0.04,7.37c0.21,1.41,1.45,2.42,2.87,2.37c2.85-0.08,7.97-0.51,11.77-2.36c5.53-2.7,9.31-8.3,11.4-16.26
				c2.09-7.96,2.43-15.45-3.44-15.72c0,0-0.05-2.23,3.24-3.1c0,0-3.67-1.69-5.24,1.37c0,0-0.4-5.85-6.25-7.6
				c-5.85-1.75-13.09,0.85-19.38,2.25c-6.3,1.39-14.6,0.67-15.31,1.57c-0.72,0.9-3.82,18.54,13.73,17.72
				C335.77,175.96,336.58,180.26,339.05,180.32z"/>
			<path class="st16" d="M330.01,198.97c1.22,0.91,4.96,0.97,9.28,0.45c0,0,1.55-0.94,2.32-2.32
				C341.26,197.26,334.37,200.24,330.01,198.97z"/>
			<path class="st17" d="M323.78,242.17v41.86c0,0,14.95,5.89,29.11,3.8c14.15-2.09,21.64-9.97,21.64-9.97s0.63-55.23-0.38-61.94
				c-1.02-6.72-5.55-9.88-9.01-10.65c-3.46-0.77-8.66,0.67-8.66,0.67c-7.27,4.17-15.08,3.46-15.08,3.46
				c-3.99,1.32-8.34,3.37-11.98,4.79C319.08,218.22,323.78,242.17,323.78,242.17z"/>
			<path class="st18" d="M323.78,242.17v41.86c0,0,14.95,5.89,29.11,3.8c14.15-2.09,21.64-9.97,21.64-9.97s0.63-55.23-0.38-61.94
				c-1.02-6.72-5.55-9.88-9.01-10.65c-3.46-0.77-8.66,0.67-8.66,0.67c-7.27,4.17-15.08,3.46-15.08,3.46
				c-3.99,1.32-8.34,3.37-11.98,4.79C319.08,218.22,323.78,242.17,323.78,242.17z"/>
			<polygon class="st7" points="296.25,239.36 286.71,210.68 301.9,202.23 303.11,202.51 311.44,230.91 			"/>
			<polygon class="st4" points="297.46,239.64 287.92,210.96 303.11,202.51 312.65,231.19 			"/>
			<polygon class="st8" points="297.8,236.72 289.93,213.03 303.01,205.67 310.87,229.36 			"/>
			<path class="st13" d="M289.39,217.76c0,0,0.73-0.56,1.07,1.47c0.34,2.03,2.26,9.26,5.76,11.57c0,0,0.76,0.31,0.79-0.37
				c0.03-0.68,0.08-2.91,0.76-4.69c0.68-1.78,2.48-2.99,3.33-2.68c0.85,0.31-0.08,3.56,0,4.8c0.08,1.24,1.75,4.12,1.84,5.45
				c0.08,1.33-0.14,2.34,0,2.91c0.14,0.56,3.98,4.72,3.98,4.72l-7.43,9.4c0,0-4.83-6.41-6.07-7.68c-1.24-1.27-3.42-3.75-4.04-6.01
				c-0.62-2.26-1.84-7.74-1.89-9.68C287.44,225.01,287.41,218.38,289.39,217.76z"/>
			<path class="st7" d="M332.36,212.96l4.86-0.68c0,0,3.84,0.23,2.94,11.74c-0.9,11.52-12.38,42.68-15.24,46.47
				c-3.84,5.08-8.24,1.99-9.15,0.82c-0.9-1.17-10.44-11.94-16.26-20.97c0,0,1.36-8.53,7.9-9.49l7.68,7.85c0,0,2.35-8.79,4.81-18.24
				C322.11,221.95,324.45,214.76,332.36,212.96z"/>
		</g>
	</g>
</g>
</svg>
