<?xml version="1.0" encoding="utf-8"?>
<!-- Generator: Adobe Illustrator 24.2.3, SVG Export Plug-In . SVG Version: 6.00 Build 0)  -->
<svg version="1.1" id="Layer_1" xmlns="http://www.w3.org/2000/svg" xmlns:xlink="http://www.w3.org/1999/xlink" x="0px" y="0px"
	 viewBox="0 0 800 800" style="enable-background:new 0 0 800 800;" xml:space="preserve">
<style type="text/css">
	.st0{display:none;}
	.st1{display:inline;fill:url(#SVGID_1_);}
	.st2{display:none;fill:url(#SVGID_2_);}
	.st3{fill:#FFFFFF;}
</style>
<g id="Background" class="st0">
	
		<radialGradient id="SVGID_1_" cx="400" cy="400" r="400" gradientTransform="matrix(1 0 0 -1 0 800)" gradientUnits="userSpaceOnUse">
		<stop  offset="0.5812" style="stop-color:#FFFFFF"/>
		<stop  offset="0.7568" style="stop-color:#F9FBFA"/>
		<stop  offset="0.983" style="stop-color:#E9EFED"/>
		<stop  offset="0.9977" style="stop-color:#E8EEEC"/>
	</radialGradient>
	<rect class="st1" width="800" height="800"/>
</g>
<g id="Objects">
	<g>
		<g>
			
				<radialGradient id="SVGID_2_" cx="358.287" cy="316.9462" r="235.4383" gradientTransform="matrix(0.7514 0 0 -5.790000e-02 122.7831 542.6712)" gradientUnits="userSpaceOnUse">
				<stop  offset="0" style="stop-color:#E2E4E4"/>
				<stop  offset="0.4716" style="stop-color:#EDEEEE"/>
				<stop  offset="1" style="stop-color:#FFFFFF"/>
			</radialGradient>
			<path class="st2" d="M142.2,524.3c0-11,111.9-20,249.8-20s249.8,9,249.8,20s-111.8,20-249.8,20S142.2,535.4,142.2,524.3z"/>
			<g>
				<g>
					<path class="st3" d="M777.1,280L777.1,280C777.1,280,777.1,280,777.1,280L777.1,280z M717.3,299.6l59.4-19.4
						c24.2,79.2,25.3,162.3,1,241.2l-58.5-19.2c-5.7,18.4-12.9,36.2-21.5,53.3l54.8,29.4c-37.2,73.7-94.5,132.8-165.9,170.8
						l-28.4-56.6c-16.4,8.8-33.8,16.2-52,22.1l18.3,59.7l-0.2,0.1c-76.7,25-157.6,25.5-234,0.4l18.6-60.3
						c-17.8-5.9-35.1-13.3-51.7-22.1l-28.4,56.5C157.2,717.3,99.9,658.2,63,584.7l55-29.3c-8.5-17-15.6-35.1-21.4-54L39.1,520l0,0
						C16.6,441,14,357.9,38.2,279.2l58,19.3c5.7-18.4,12.8-36.2,21.4-53.3l-54.9-29.3c37.1-73.8,94.4-132.9,165.7-171l28.5,56.6
						c16.4-8.8,33.8-16.2,52-22.2l-18.3-59.7l0.5-0.1l-0.2-0.5c77.1-25.1,157.4-25.1,233.7-0.2L506,79.1
						c17.9,5.8,35.1,13.3,51.8,22.1L586,44.7c71.6,38.2,128.6,97.3,165.7,170.8L696.5,245C705.1,262.1,712.8,280.3,717.3,299.6
						L717.3,299.6z M690.9,308C641.5,146.8,474.7,57.3,318.2,108.2C161.8,159.1,75,331.1,124.4,492.4
						c49.4,161.3,216.2,250.7,372.7,199.8C653.5,641.3,740.3,469.3,690.9,308z M142.7,479.2h47.4V295.7h13.5v183.5h13.5v-18.6h24.2
						l3.6-132.4h-5.2v-27.9h5.9l1.5-55.7h-7.4v-20.9h8l0.3-16.3h26.5l0.3,16.3h5.4v20.9h-4.8l1.5,55.7h5.6v27.9h-4.9l3.6,132.4H296
						l3.6-132.4h-3.6v-27.9h4.3l1.5-55.7h-5.8v-20.9h6.4l0.3-16.3h26.5l0.3,16.3h7v20.9h-6.4l1.5,55.7h7.1v27.9h-6.4l1.3,41.8h30
						v-5.8c0-12.6,9.1-22.8,21.3-22.8c5,0,10.2,1.7,12.5,4.6v-21c0-16.1,13-29.2,28.7-29.2c14.4,0,26.7,11.5,28.4,25.4h32.1
						c1.8-20.9,2.9-41.8,2.9-67.4c9.5,0,16.5,0,21.6,0c0,0,0.1,0,0.1,0c11.3,0,13.7,0,14.1,0h0.1c5.2,0,12.1,0,21.6,0
						c0,25.6,1.1,46.4,2.9,67.4h60.2h5.3h11.7v157.9h45.3c-33,120.8-139.1,205.6-264.9,205.6C281.8,684.8,175.7,600,142.7,479.2z
						 M609.1,386.3h-50.6c5.6,32.5,12,55.7,15.9,74.3h23.4v18.6h11.3L609.1,386.3L609.1,386.3z M551.4,335.2
						c1.4,13.9,3,25.6,4.8,34.8h53v-34.8H551.4z M455.9,370h24.4c1.8-9.3,3.4-20.9,4.8-34.8h-29.2L455.9,370L455.9,370z
						 M455.9,460.6h6.1c4-18.6,10.3-41.8,15.9-74.3h-22.1V460.6z M334,386.3l1.9,74.3h27.7v-74.3L334,386.3L334,386.3z"/>
				</g>
			</g>
		</g>
	</g>
</g>
</svg>
